:version 1.10
:name ASF
:units
  mass 1
  length 1
  angle deg
:documentation
  ASF file generated by Kaydara
:root
  axis xyz
  order  tx ty tz rx ry rz
  position 0 0 0
  orientation 0 0 0
:bonedata
  begin
    id 1
    name lfemurDummy
    direction 0.61522 -0.761478 0.204097
    length 5.68318
    axis 0 -0 0 xyz
  end
  begin
    id 2
    name lfemur
    direction 0.34202 -0.939693 -5.84747e-008
    length 16.9147
    axis 0 -0 20 xyz
    dof rx ry rz
    limits( -inf , inf )
( -inf , inf )
( -inf , inf )

  end
  begin
    id 3
    name ltibia
    direction 0.34202 -0.939693 1.20839e-009
    length 18.0532
    axis 0 -0 20 xyz
    dof rz ry rx
    limits( -inf , inf )
( -inf , inf )
( -inf , inf )

  end
  begin
    id 4
    name lfoot
    direction 0.0841971 -0.23133 0.969225
    length 5.23822
    axis -90 7.62852e-016 20 xyz
    dof ry rx rz
    limits( -inf , inf )
( -inf , inf )
( -inf , inf )

  end
  begin
    id 5
    name ltoes
    direction 0 0 0
    length 0
    axis 0 0 0 xyz
    dof rz ry rx
    limits( -inf , inf )
( -inf , inf )
( -inf , inf )

  end
  begin
    id 6
    name rfemurDummy
    direction -0.625247 -0.75382 0.202044
    length 5.74091
    axis 0 -0 0 xyz
  end
  begin
    id 7
    name rfemur
    direction -0.34202 -0.939693 -1.47013e-008
    length 16.4922
    axis 0 -0 -20 xyz
    dof rx ry rz
    limits( -inf , inf )
( -inf , inf )
( -inf , inf )

  end
  begin
    id 8
    name rtibia
    direction -0.34202 -0.939693 -7.74345e-010
    length 18.2421
    axis 0 -0 -20 xyz
    dof rz ry rx
    limits( -inf , inf )
( -inf , inf )
( -inf , inf )

  end
  begin
    id 9
    name rfoot
    direction -0.124331 -0.341598 0.931586
    length 5.45787
    axis -90 -7.62852e-016 -20 xyz
    dof ry rx rz
    limits( -inf , inf )
( -inf , inf )
( -inf , inf )

  end
  begin
    id 10
    name rtoes
    direction 0 0 0
    length 0
    axis 0 0 0 xyz
    dof rz ry rx
    limits( -inf , inf )
( -inf , inf )
( -inf , inf )

  end
  begin
    id 11
    name lowerbackDummy
    direction 0 0 0
    length 0
    axis 0 -0 0 xyz
  end
  begin
    id 12
    name lowerback
    direction -0.0218484 0.994884 -0.0986304
    length 4.45607
    axis 0 -0 0 xyz
    dof rx ry rz
    limits( -inf , inf )
( -inf , inf )
( -inf , inf )

  end
  begin
    id 13
    name upperback
    direction -0.00973057 0.999717 -0.0217111
    length 4.47449
    axis 0 -0 0 xyz
    dof rx ry rz
    limits( -inf , inf )
( -inf , inf )
( -inf , inf )

  end
  begin
    id 14
    name thorax
    direction -0.000928171 0.999699 0.0245198
    length 4.50973
    axis 0 -0 0 xyz
    dof rx ry rz
    limits( -inf , inf )
( -inf , inf )
( -inf , inf )

  end
  begin
    id 15
    name rclavicle
    direction -0.9009 0.425937 -0.0834055
    length 7.28587
    axis 0 -0 0 xyz
    dof rx ry rz
    limits( -inf , inf )
( -inf , inf )
( -inf , inf )

  end
  begin
    id 16
    name rhumerus
    direction -1 -2.23604e-007 -1.42637e-007
    length 13.5704
    axis 180 30 90 xyz
    dof rx ry rz
    limits( -inf , inf )
( -inf , inf )
( -inf , inf )

  end
  begin
    id 17
    name rradius
    direction -1 5.68281e-008 -4.4952e-007
    length 8.06782
    axis 180 30 90 xyz
    dof rz ry rx
    limits( -inf , inf )
( -inf , inf )
( -inf , inf )

  end
  begin
    id 18
    name rwrist
    direction -1 1.51393e-007 1.38143e-007
    length 4.03391
    axis -90 -90 0 xyz
    dof rz rx ry
    limits( -inf , inf )
( -inf , inf )
( -inf , inf )

  end
  begin
    id 19
    name rthumb
    direction 0 0 0
    length 0
    axis 0 0 0 xyz
    dof ry rx rz
    limits( -inf , inf )
( -inf , inf )
( -inf , inf )

  end
  begin
    id 20
    name rhand
    direction -1 -3.34077e-007 -5.59631e-007
    length 1.29744
    axis -90 -90 0 xyz
    dof ry rx rz
    limits( -inf , inf )
( -inf , inf )
( -inf , inf )

  end
  begin
    id 21
    name rfingers
    direction 0 0 0
    length 0
    axis 0 0 0 xyz
    dof rz ry rx
    limits( -inf , inf )
( -inf , inf )
( -inf , inf )

  end
  begin
    id 22
    name lclavicle
    direction 0.940017 0.332249 -0.0773232
    length 8.29589
    axis 0 -0 0 xyz
    dof rx ry rz
    limits( -inf , inf )
( -inf , inf )
( -inf , inf )

  end
  begin
    id 23
    name lhumerus
    direction 1 7.41158e-008 -1.44768e-008
    length 12.0042
    axis 180 -30 -90 xyz
    dof rx ry rz
    limits( -inf , inf )
( -inf , inf )
( -inf , inf )

  end
  begin
    id 24
    name lradius
    direction 1 -1.32972e-007 3.10821e-007
    length 8.1902
    axis 180 -30 -90 xyz
    dof rz ry rx
    limits( -inf , inf )
( -inf , inf )
( -inf , inf )

  end
  begin
    id 25
    name lwrist
    direction 1 3.08957e-007 4.01394e-007
    length 4.09509
    axis -90 90 0 xyz
    dof rz rx ry
    limits( -inf , inf )
( -inf , inf )
( -inf , inf )

  end
  begin
    id 26
    name lthumb
    direction 0 0 0
    length 0
    axis 0 0 0 xyz
    dof ry rx rz
    limits( -inf , inf )
( -inf , inf )
( -inf , inf )

  end
  begin
    id 27
    name lhand
    direction 1 -1.64125e-007 -6.99514e-007
    length 1.37229
    axis -90 90 0 xyz
    dof ry rx rz
    limits( -inf , inf )
( -inf , inf )
( -inf , inf )

  end
  begin
    id 28
    name lfingers
    direction 0 0 0
    length 0
    axis 0 0 0 xyz
    dof rz ry rx
    limits( -inf , inf )
( -inf , inf )
( -inf , inf )

  end
  begin
    id 29
    name lowerneck
    direction -0.030798 0.998024 0.0547665
    length 3.93918
    axis 0 -0 0 xyz
    dof rx ry rz
    limits( -inf , inf )
( -inf , inf )
( -inf , inf )

  end
  begin
    id 30
    name upperneck
    direction 0.0531588 0.996611 -0.0627736
    length 3.95491
    axis 0 -0 0 xyz
    dof rx ry rz
    limits( -inf , inf )
( -inf , inf )
( -inf , inf )

  end
  begin
    id 31
    name head
    direction 0 0 0
    length 0
    axis 0 0 0 xyz
    dof rx ry rz
    limits( -inf , inf )
( -inf , inf )
( -inf , inf )

  end
:hierarchy
  begin
    root lfemurDummy rfemurDummy lowerbackDummy
    lfemurDummy lfemur
    lfemur ltibia
    ltibia lfoot
    lfoot ltoes
    rfemurDummy rfemur
    rfemur rtibia
    rtibia rfoot
    rfoot rtoes
    lowerbackDummy lowerback
    lowerback upperback
    upperback thorax
    thorax rclavicle lclavicle lowerneck
    rclavicle rhumerus
    rhumerus rradius
    rradius rwrist
    rwrist rthumb rhand
    rhand rfingers
    lclavicle lhumerus
    lhumerus lradius
    lradius lwrist
    lwrist lthumb lhand
    lhand lfingers
    lowerneck upperneck
    upperneck head
  end

:SAMPLES-PER-SECOND 30
:FULLY-SPECIFIED
:DEGREES
28
root  5.337688867 39.36822245 -2.126697856 -3.351989746 -34.1519928 5.12701416
lowerback  9.724040031 1.143110037 -2.703190088
upperback  3.693470001 1.219949961 -0.2216030061
thorax  -1.665560007 0.5759350061 1.157009959
lowerneck  -4.150100231 3.799020052 -4.184470177
upperneck  5.076990128 4.989009857 6.31539011
head  2.068480015 2.576499939 2.924959898
lclavicle  0 -9.442270133e-015 7.951389973e-016
lhumerus  2.720400095 -16.88339996 76.45729828
lradius  2.674453176e-031 -2.305676527e-031 139.2350006
lwrist  -1.412450015e-030 -0 6.612480164
lhand  -1.496451383e-031 -27.76390076 20.11240005
lfingers  90 7.125020027 -90
lthumb  89.89689403 5.08795885 91.16245106
rclavicle  0 -9.442270133e-015 7.951389973e-016
rhumerus  14.78409958 18.5965004 -79.41040039
rradius  -2.61210313e-031 2.376081075e-031 137.7089996
rwrist  0 -0 -9.606769562
rhand  -7.920061211e-032 -33.2840004 9.303460121
rfingers  -90 -7.125020027 -90
rthumb  -92.93752616 -24.25625642 -97.11982154
rfemur  -12.87880039 10.83850002 14.55340004
rtibia  -0 0 56.29949951
rfoot  -4.877075835e-032 -25.17250061 -4.406990051
rtoes  5.373923086 19.29304026 -105.8922705
lfemur  -26.28800011 7.41685009 -11.88269997
ltibia  -0 0 58.45640182
lfoot  -0 -7.754600048 7.384870052
ltoes  -4.250644065 -19.5611806 -102.515957
29
root  5.268555739 39.61222191 -2.100288962 -3.833984375 -34.04299927 5.465026855
lowerback  9.935529709 1.187119961 -2.504479885
upperback  3.472480059 1.280750036 -0.5093219876
thorax  -2.002820015 0.6147059798 0.7349230051
lowerneck  -3.8182199 3.788209915 -4.124310017
upperneck  5.797289848 4.904940128 6.74890995
head  2.243330002 2.544199944 3.068979979
lclavicle  0 -9.442270133e-015 7.951389973e-016
lhumerus  1.806509972 -17.59140015 76.55390167
lradius  2.669819781e-031 -2.311040106e-031 139.1199951
lwrist  -1.412450015e-030 -5.296687558e-031 6.031159878
lhand  -1.496451383e-031 -27.76390076 20.11240005
lfingers  90 7.125020027 -90
lthumb  89.89689403 5.08795885 91.16245106
rclavicle  0 -9.442270133e-015 7.951389973e-016
rhumerus  13.61590004 18.09799957 -80.13880157
rradius  -2.594281329e-031 2.395526753e-031 137.2810059
rwrist  1.412450015e-030 -0 -9.828120232
rhand  -7.920061211e-032 -33.2840004 9.303460121
rfingers  -90 -7.125020027 -90
rthumb  -92.93752616 -24.25625642 -97.11982154
rfemur  -12.26729965 10.87320042 14.21210003
rtibia  -0 0 55.68939972
rfoot  -4.816106832e-032 -23.58200073 -4.037859917
rtoes  5.373923086 19.29304026 -105.8922705
lfemur  -25.71899986 7.276889801 -12.30440044
ltibia  -0 0 57.67399979
lfoot  -0 -6.328849792 7.589540005
ltoes  -4.250644065 -19.5611806 -102.515957
30
root  5.205488956 39.8735557 -2.069308814 -4.153991699 -33.8809967 5.692016602
lowerback  9.93789959 1.23379004 -2.657140017
upperback  3.301909924 1.329239964 -0.4441570044
thorax  -2.187210083 0.6426159739 0.8802800179
lowerneck  -3.679349899 3.760900021 -4.14192009
upperneck  6.691880226 4.822289944 6.795000076
head  2.519629955 2.50428009 3.109100103
lclavicle  0 -9.442270133e-015 7.951389973e-016
lhumerus  1.046630025 -18.01980019 77.03379822
lradius  2.663315455e-031 -2.318532903e-031 138.9589996
lwrist  -1.412450015e-030 -1.765562519e-031 5.463180065
lhand  -1.496451383e-031 -27.76390076 20.11240005
lfingers  90 7.125020027 -90
lthumb  89.89689403 5.08795885 91.16245106
rclavicle  0 -9.442270133e-015 7.951389973e-016
rhumerus  12.7723999 17.64990044 -80.28309631
rradius  -2.574627906e-031 2.416637164e-031 136.8130035
rwrist  0 -1.765562519e-031 -9.926609993
rhand  -7.920061211e-032 -33.2840004 9.303460121
rfingers  -90 -7.125020027 -90
rthumb  -92.93752616 -24.25625642 -97.11982154
rfemur  -11.83950043 10.74030018 13.94909954
rtibia  -0 0 55.12860107
rfoot  -4.754922071e-032 -21.8314991 -3.567199945
rtoes  5.373923086 19.29304026 -105.8922705
lfemur  -25.20610046 7.091420174 -12.67129993
ltibia  -0 0 56.77339935
lfoot  -0 -4.993559837 7.405910015
ltoes  -4.250644065 -19.5611806 -102.515957
31
root  5.156711143 40.11844425 -2.046331083 -4.382019043 -33.64500427 5.846008301
lowerback  9.59774971 1.201760054 -2.616039991
upperback  3.337860107 1.30321002 -0.4677000046
thorax  -1.960669994 0.6276239753 0.842682004
lowerneck  -3.689440012 3.758850098 -3.918299913
upperneck  7.461100101 4.78110981 6.641729832
head  2.790179968 2.486619949 3.039789915
lclavicle  0 -9.442270133e-015 7.951389973e-016
lhumerus  0.8120239973 -18.12310028 77.17939758
lradius  2.655693374e-031 -2.327259492e-031 138.7709961
lwrist  -7.062250077e-031 -1.765562519e-031 5.507890224
lhand  -1.496451383e-031 -27.76390076 20.11240005
lfingers  90 7.125020027 -90
lthumb  89.89689403 5.08795885 91.16245106
rclavicle  0 -9.442270133e-015 7.951389973e-016
rhumerus  12.46020031 17.17239952 -80.41829681
rradius  -2.550246285e-031 2.442352948e-031 136.2380066
rwrist  7.062250077e-031 -0 -9.720000267
rhand  -7.920061211e-032 -33.2840004 9.303460121
rfingers  -90 -7.125020027 -90
rthumb  -92.93752616 -24.25625642 -97.11982154
rfemur  -11.55799961 10.49170017 13.75430012
rtibia  -0 0 54.69670105
rfoot  -4.700149868e-032 -20.0991993 -3.102449894
rtoes  5.373923086 19.29304026 -105.8922705
lfemur  -24.78610039 6.92113018 -13.01070023
ltibia  -0 0 55.82649994
lfoot  4.426027816e-032 -4.241390228 6.227129936
ltoes  -4.250644065 -19.5611806 -102.515957
